<?xml version="1.0" standalone="no"?>
<!DOCTYPE svg PUBLIC "-//W3C//DTD SVG 20010904//EN"
 "http://www.w3.org/TR/2001/REC-SVG-20010904/DTD/svg10.dtd">
<svg version="1.0" xmlns="http://www.w3.org/2000/svg"
 width="2048.000000pt" height="2048.000000pt" viewBox="0 0 2048.000000 2048.000000"
 preserveAspectRatio="xMidYMid meet">

<g transform="translate(0.000000,2048.000000) scale(0.100000,-0.100000)"
fill="#000000" stroke="none">
<path d="M0 10240 l0 -10240 10240 0 10240 0 0 10240 0 10240 -10240 0 -10240
0 0 -10240z m5200 2948 c40 -62 98 -153 129 -203 105 -165 515 -806 706 -1105
257 -401 367 -574 543 -850 145 -227 393 -616 725 -1135 88 -137 222 -347 297
-465 75 -118 225 -352 332 -520 107 -168 221 -349 252 -403 32 -54 60 -96 63
-93 3 3 0 47 -6 98 -28 247 -32 580 -29 2663 l3 2120 335 0 335 0 3 -2877 2
-2878 -414 0 c-354 0 -415 2 -426 15 -7 8 -56 83 -110 167 -213 330 -386 600
-481 748 -55 85 -131 202 -168 260 -38 58 -205 317 -371 575 -166 259 -332
516 -369 572 -36 57 -110 171 -164 255 -54 84 -342 531 -640 994 -298 462
-570 884 -604 936 -84 132 -147 243 -187 335 -45 100 -61 107 -52 22 3 -35 11
-118 16 -184 6 -72 10 -1033 10 -2407 l0 -2288 -340 0 -340 0 0 2873 c0 1581
3 2877 7 2880 3 4 201 7 439 7 l433 0 71 -112z m8095 -198 l0 -305 -1112 -3
-1113 -2 0 -955 0 -955 1040 0 1040 0 0 -300 0 -300 -948 0 c-522 0 -990 -3
-1040 -6 l-92 -7 0 -993 0 -994 1184 0 c652 0 1187 -3 1189 -7 2 -5 2 -146 -1
-315 l-4 -308 -1529 0 -1529 0 0 2873 c0 1581 3 2877 7 2880 3 4 659 6 1457 5
l1451 -3 0 -305z m4660 0 l0 -305 -832 -3 -833 -2 -2 -2568 -3 -2567 -337 -3
-338 -2 0 2570 0 2570 -827 2 -828 3 -3 295 c-1 162 0 300 3 307 3 11 400 13
2002 11 l1998 -3 0 -305z m-15153 -4668 c83 -41 182 -138 219 -215 44 -93 55
-180 36 -277 -8 -43 -26 -101 -39 -127 -29 -59 -117 -150 -182 -188 -124 -73
-315 -73 -438 -1 -68 40 -154 136 -191 213 -30 64 -32 74 -32 183 1 108 3 119
32 183 36 77 122 173 192 214 76 44 117 53 233 50 96 -3 113 -7 170 -35z"/>
</g>
</svg>
