<?xml version="1.0" standalone="no"?>
<!DOCTYPE svg PUBLIC "-//W3C//DTD SVG 20010904//EN"
 "http://www.w3.org/TR/2001/REC-SVG-20010904/DTD/svg10.dtd">
<svg version="1.0" xmlns="http://www.w3.org/2000/svg"
 width="512.000000pt" height="512.000000pt" viewBox="0 0 512.000000 512.000000"
 preserveAspectRatio="xMidYMid meet">

<g transform="translate(0.000000,512.000000) scale(0.100000,-0.100000)"
fill="#000000" stroke="none">
<path d="M933 4601 c-42 -26 -51 -67 -24 -119 11 -22 34 -50 51 -62 69 -49 58
-91 -45 -166 -72 -53 -84 -73 -61 -106 9 -13 16 -43 16 -71 0 -68 -41 -110
-125 -127 -75 -16 -115 -52 -115 -104 0 -29 5 -39 24 -47 20 -9 34 -7 78 13
29 14 67 28 83 32 59 13 -3 -22 -89 -50 -141 -45 -229 -118 -262 -217 -21 -63
-15 -125 20 -202 45 -97 82 -216 141 -458 77 -315 137 -481 262 -732 111 -221
217 -389 382 -605 117 -154 219 -257 378 -383 377 -299 752 -446 1283 -501
322 -33 496 -40 685 -28 99 7 207 17 240 22 33 6 108 14 166 20 75 6 140 20
219 45 116 38 199 47 250 27 20 -8 34 -5 67 15 26 15 83 32 149 44 59 10 124
27 143 37 33 15 36 21 39 64 2 37 -1 51 -18 68 -19 19 -31 20 -156 19 -115 0
-141 2 -174 19 -38 19 -40 19 -56 1 -34 -38 -83 -43 -175 -19 -65 17 -99 20
-150 15 -65 -6 -119 5 -119 24 0 6 21 36 46 67 57 70 81 123 62 136 -63 41
-120 17 -245 -104 l-103 -101 -73 13 c-331 58 -711 238 -964 458 -105 92 -365
408 -450 548 -101 167 -191 463 -227 751 -13 99 -50 572 -58 723 -3 74 2 101
27 125 34 35 83 32 209 -10 58 -19 119 -35 136 -35 39 0 70 16 70 36 0 25 -78
100 -137 131 -58 31 -242 101 -320 122 -23 6 -65 28 -95 48 -65 44 -126 72
-155 73 -16 0 -23 6 -23 19 0 56 -32 75 -171 101 -56 11 -116 29 -135 40 -32
20 -33 23 -27 66 9 68 -1 74 -129 74 -102 0 -110 1 -133 25 -29 28 -29 34 -11
95 17 60 5 105 -37 130 -42 26 -121 26 -164 1z m122 -7 c8 -4 22 -19 30 -35
14 -25 13 -29 -2 -38 -9 -5 -41 -7 -70 -4 -43 5 -54 3 -59 -11 -3 -9 0 -24 7
-34 13 -15 12 -16 -3 -3 -24 18 -23 72 3 105 20 26 57 34 94 20z m35 -284 c0
-5 -5 -10 -11 -10 -5 0 -7 5 -4 10 3 6 8 10 11 10 2 0 4 -4 4 -10z m179 -16
c9 -8 -9 -16 -48 -21 -28 -4 -41 -2 -41 6 0 23 67 34 89 15z m42 -133 c37 -12
75 -31 85 -43 19 -21 19 -21 -5 -15 -22 5 -23 3 -19 -26 7 -43 1 -57 -26 -57
-37 0 -88 41 -114 92 -24 47 -24 84 1 76 6 -3 42 -15 78 -27z m-103 -80 c12
-11 22 -22 22 -24 0 -3 -39 -8 -87 -10 -49 -2 -101 -8 -118 -12 -24 -6 -28 -5
-18 5 9 10 151 58 173 59 3 0 15 -8 28 -18z m337 -80 c-5 -22 -1 -38 16 -60
30 -40 19 -48 -20 -16 l-31 27 0 -35 c0 -19 -8 -45 -19 -58 -16 -20 -22 -22
-44 -12 -13 6 -38 31 -54 55 -34 51 -58 56 -58 12 l0 -31 -40 18 c-56 26 -134
24 -254 -7 -57 -14 -105 -23 -108 -21 -7 7 72 31 267 81 96 25 195 51 220 59
25 8 64 15 88 16 43 1 44 1 37 -28z m555 -141 c16 -63 -43 -142 -131 -173
-142 -50 -343 -90 -515 -101 -87 -6 -150 -26 -249 -81 -56 -31 -170 -75 -195
-75 -7 0 -9 8 -5 19 9 29 -7 33 -80 20 -58 -10 -65 -13 -65 -35 0 -34 -27 -45
-74 -29 -90 31 -128 113 -64 139 l31 14 -30 6 c-36 8 -71 -4 -98 -34 -15 -17
-21 -41 -25 -108 l-5 -86 -28 51 c-39 72 -37 125 5 167 35 34 114 69 186 81
42 7 43 6 37 -17 -13 -52 83 -117 156 -106 33 4 35 32 4 46 -29 13 -33 37 -7
47 14 5 10 10 -20 26 -64 33 -56 39 90 69 53 11 180 44 282 75 168 50 362 95
410 95 16 0 17 -4 9 -35 -12 -43 -8 -52 32 -60 22 -5 36 -3 46 8 13 13 13 18
-1 45 -9 17 -26 34 -38 39 -37 12 46 20 201 19 l135 -1 6 -25z m290 -115 c32
-16 48 -51 31 -68 -7 -7 -12 -6 -17 6 -3 9 -21 26 -40 38 -57 35 -35 55 26 24z
m-430 -145 c45 -24 53 -202 15 -321 -4 -13 -2 -19 9 -19 27 0 40 -98 28 -215
-7 -66 -6 -82 6 -91 12 -8 14 -27 10 -87 -4 -67 -3 -76 14 -80 33 -9 16 -72
-19 -72 -13 0 -21 -13 -30 -50 -16 -65 -11 -80 11 -33 21 43 43 65 55 52 4 -5
13 -38 20 -74 10 -53 84 -339 97 -375 2 -5 9 -18 16 -27 10 -14 7 -21 -20 -46
-18 -17 -32 -34 -32 -39 1 -4 20 -17 42 -28 30 -14 49 -33 64 -63 20 -37 23
-40 29 -21 6 19 11 16 58 -34 29 -30 78 -97 111 -149 32 -52 81 -119 108 -149
74 -80 87 -99 81 -114 -14 -38 95 -150 203 -211 56 -31 219 -94 245 -94 5 0
37 -29 72 -64 78 -77 152 -110 234 -104 42 4 50 2 42 -8 -8 -9 -4 -17 14 -28
22 -15 40 -21 180 -60 31 -9 57 -20 57 -25 0 -12 -52 -32 -88 -33 -55 -2 -219
46 -364 107 -53 22 -111 38 -150 41 -57 6 -69 3 -122 -25 -66 -35 -81 -34 -46
4 39 41 16 38 -32 -5 -26 -22 -53 -40 -62 -40 -8 0 -29 20 -46 45 -32 47 -66
63 -97 47 -13 -7 -28 -4 -56 15 -37 24 -38 25 -21 44 16 18 16 19 -5 19 l-22
0 21 31 c12 16 20 32 18 34 -3 3 -47 9 -100 15 -132 13 -184 33 -211 80 -32
53 -18 61 70 38 40 -10 44 -12 25 -19 -34 -13 -26 -35 18 -53 40 -16 115 -21
143 -10 10 4 -13 33 -82 102 -109 110 -178 152 -431 263 -145 63 -213 99 -225
119 -3 5 -2 10 4 10 19 0 111 -39 148 -64 48 -31 99 -42 118 -26 48 40 -42
179 -117 180 -30 1 -54 15 -113 67 -49 44 -49 45 10 58 16 4 36 11 42 17 16
13 16 56 0 84 -18 31 -116 138 -121 133 -3 -3 6 -29 19 -58 14 -29 25 -62 25
-73 0 -35 -24 -13 -45 43 -32 83 -115 130 -123 69 -6 -39 -20 -47 -31 -17 -9
22 -14 25 -43 21 -47 -8 -68 19 -77 97 -8 62 -9 64 -77 125 -38 34 -66 65 -63
68 3 4 22 -1 42 -9 47 -20 74 -19 86 2 12 23 -1 55 -45 109 -41 50 -57 54 -78
21 -8 -12 -29 -30 -46 -40 -28 -17 -31 -17 -36 -2 -4 9 -4 48 -1 85 l6 69 -26
-12 c-24 -11 -25 -14 -21 -78 l5 -67 -33 5 c-54 9 -43 -14 43 -94 44 -40 69
-70 58 -67 -13 3 -28 -2 -39 -15 -21 -24 -49 -27 -63 -8 -6 6 -18 37 -28 67
-19 57 -71 120 -99 120 -20 0 -21 16 -1 24 29 11 15 44 -37 89 l-51 44 37 47
c48 57 74 60 112 11 15 -20 25 -37 23 -38 -2 -1 -13 -7 -24 -13 -38 -22 -9
-123 39 -132 13 -3 16 6 18 45 6 128 -6 163 -68 199 -32 19 -51 24 -73 19 -32
-7 -56 11 -72 53 -13 33 -5 52 21 52 13 0 20 7 20 19 0 36 33 63 85 68 51 6
95 34 95 60 0 7 -13 40 -30 73 -47 94 -38 123 37 113 78 -11 194 54 164 91
-11 13 -6 15 38 9 41 -5 55 -2 71 12 11 10 20 24 20 32 0 17 9 16 82 -3 83
-21 103 -15 54 16 l-40 24 32 13 c17 7 73 20 124 28 51 9 107 22 123 30 36 17
41 18 65 5z m-730 -184 c0 -3 -4 -8 -10 -11 -5 -3 -10 -1 -10 4 0 6 5 11 10
11 6 0 10 -2 10 -4z m-520 -36 c0 -12 -28 -25 -36 -17 -9 9 6 27 22 27 8 0 14
-5 14 -10z m414 -103 c40 -29 -35 -86 -88 -67 -36 13 -30 30 11 31 l38 1 -35
14 c-77 32 -77 33 -9 33 39 1 72 -4 83 -12z m-214 -56 c0 -26 -38 -38 -57 -18
-21 20 -8 37 28 37 22 0 29 -5 29 -19z m70 -51 c0 -5 -6 -10 -14 -10 -8 0 -18
5 -21 10 -3 6 3 10 14 10 12 0 21 -4 21 -10z m-306 -16 c3 -8 2 -12 -4 -9 -6
3 -10 10 -10 16 0 14 7 11 14 -7z m254 -15 c-2 -6 -8 -10 -13 -10 -5 0 -11 4
-13 10 -2 6 4 11 13 11 9 0 15 -5 13 -11z m-24 -95 c9 -3 16 -13 16 -21 0 -18
-47 -10 -70 13 -12 12 -11 14 12 14 15 0 33 -3 42 -6z m-166 -79 c17 -38 15
-47 -7 -36 -21 12 -34 38 -25 52 9 16 20 10 32 -16z m170 -17 c2 -11 -4 -14
-22 -11 -35 7 -55 31 -35 43 16 11 52 -10 57 -32z m-44 -34 c17 -6 22 -24 8
-24 -5 0 -17 7 -28 15 -19 15 -8 20 20 9z m-34 -196 c16 -43 30 -88 30 -100
-1 -23 -1 -22 -25 5 -14 15 -25 24 -25 18 0 -5 5 -13 10 -16 15 -9 47 -75 76
-158 15 -39 35 -88 46 -107 19 -33 17 -32 -25 12 -33 35 -58 78 -92 160 -27
62 -60 138 -76 168 -56 110 -45 139 15 43 42 -67 43 -66 16 12 -43 126 -2 95
50 -37z m215 -58 c-3 -5 -10 -10 -16 -10 -5 0 -9 5 -9 10 0 6 7 10 16 10 8 0
12 -4 9 -10z m60 -100 c-3 -5 -17 -10 -30 -10 -13 0 -27 5 -30 10 -4 6 8 10
30 10 22 0 34 -4 30 -10z m205 -16 c0 -8 -4 -12 -10 -9 -5 3 -10 10 -10 16 0
5 5 9 10 9 6 0 10 -7 10 -16z m129 -143 c5 -20 12 -53 16 -74 4 -24 21 -55 50
-87 42 -47 62 -86 51 -97 -3 -3 -75 28 -160 68 -85 40 -153 75 -151 78 3 2 -5
19 -16 38 -22 35 -20 63 5 63 7 0 46 -13 84 -30 97 -41 119 -30 88 45 -8 18
-12 36 -9 38 12 13 34 -8 42 -42z m-550 -46 c18 -30 44 -83 58 -117 29 -71 56
-113 136 -211 31 -37 59 -77 62 -90 4 -12 29 -43 55 -68 39 -38 52 -61 74
-127 28 -84 67 -132 105 -132 21 0 40 -20 72 -78 23 -42 62 -72 93 -72 8 0 12
-7 10 -17 -7 -24 80 -107 127 -122 43 -14 119 -81 119 -104 0 -21 -23 -21 -82
-1 -31 10 -70 38 -120 87 -41 40 -104 97 -139 128 -36 31 -84 81 -107 111 -62
80 -143 219 -135 232 3 6 3 8 -2 4 -11 -10 -249 350 -300 456 -79 161 -94 233
-26 121z m341 -125 c0 -5 -7 -7 -15 -4 -8 4 -15 8 -15 10 0 2 7 4 15 4 8 0 15
-4 15 -10z m15 -126 c9 -9 13 -19 10 -22 -3 -3 -15 4 -27 16 -13 12 -17 22
-11 22 6 0 19 -7 28 -16z m525 1 c7 -9 11 -18 8 -21 -9 -9 -59 16 -53 26 9 15
31 12 45 -5z m-159 -35 c38 -12 69 -23 69 -25 0 -3 -16 -11 -35 -19 -39 -17
-44 -32 -17 -52 16 -12 15 -13 -5 -14 -33 0 -28 -16 12 -42 19 -13 33 -28 31
-34 -3 -7 11 -27 30 -45 23 -23 34 -41 32 -56 -2 -16 7 -31 27 -48 45 -36 10
-31 -60 10 -33 20 -85 47 -115 62 -66 32 -110 61 -110 74 0 5 14 2 31 -6 55
-29 52 -10 -5 34 -57 44 -67 54 -42 45 28 -11 26 16 -4 37 -36 27 -38 39 -6
39 19 0 23 4 19 20 -6 23 0 25 30 9 18 -9 20 -9 10 2 -34 35 8 38 108 9z
m-250 -50 c13 -10 20 -19 16 -20 -11 0 -67 29 -67 35 0 12 30 3 51 -15z m-110
-71 c13 -26 7 -24 -22 7 -17 19 -19 23 -6 18 10 -3 22 -15 28 -25z m764 -209
c3 -5 1 -10 -4 -10 -6 0 -11 5 -11 10 0 6 2 10 4 10 3 0 8 -4 11 -10z m-355
-50 c12 -8 12 -10 -5 -9 -11 0 -29 4 -40 9 -18 8 -18 9 5 9 14 0 32 -4 40 -9z
m227 -21 c26 -12 42 -23 36 -26 -18 -6 -79 15 -93 33 -17 20 -1 18 57 -7z
m-149 -5 c12 -4 22 -11 22 -16 0 -10 -39 -1 -54 13 -12 11 -1 11 32 3z m81
-77 c51 -17 93 -36 93 -42 1 -17 -45 -35 -90 -35 -91 0 -214 65 -198 105 9 24
75 15 195 -28z m190 -16 c31 -16 68 -34 84 -40 30 -12 36 -31 9 -31 -36 0 -86
20 -138 56 -30 21 -54 39 -54 41 0 12 51 -2 99 -26z m138 9 c21 -11 47 -20 58
-20 11 0 27 -5 35 -11 33 -23 -105 -3 -160 24 l-55 26 43 0 c24 1 58 -7 79
-19z m588 -80 c-5 -8 -11 -8 -17 -2 -6 6 -7 16 -3 22 5 8 11 8 17 2 6 -6 7
-16 3 -22z m-606 -46 c19 -8 31 -17 28 -20 -12 -12 -74 7 -93 28 -19 21 -19
21 6 13 14 -4 40 -14 59 -21z m-354 6 c8 -13 -5 -13 -25 0 -13 8 -13 10 2 10
9 0 20 -4 23 -10z m1050 -30 c3 -5 -1 -10 -9 -10 -9 0 -16 5 -16 10 0 6 4 10
9 10 6 0 13 -4 16 -10z m-683 -92 c37 -19 40 -23 21 -26 -31 -5 -113 33 -113
52 0 18 20 12 92 -26z m63 22 c3 -5 -1 -10 -9 -10 -8 0 -18 5 -21 10 -3 6 1
10 9 10 8 0 18 -4 21 -10z m-200 -21 c4 -6 5 -12 2 -15 -7 -7 -37 7 -37 17 0
13 27 11 35 -2z m2111 -96 c-10 -10 -19 5 -10 18 6 11 8 11 12 0 2 -7 1 -15
-2 -18z m-2136 -18 c-14 -16 -40 -20 -40 -6 0 10 17 19 39 20 11 1 11 -2 1
-14z m214 -5 c-7 -7 -19 -7 -35 -1 -23 9 -22 10 11 10 23 1 31 -2 24 -9z m107
-26 c11 -14 9 -15 -16 -12 -16 1 -30 9 -33 16 -6 18 33 15 49 -4z m264 -23
c-18 -17 -65 -17 -65 -1 0 6 17 10 37 10 23 0 33 -4 28 -9z m1375 -10 c0 -14
-18 -23 -30 -16 -6 4 -8 11 -5 16 8 12 35 12 35 0z m-1993 -17 c-3 -3 -12 -4
-19 -1 -8 3 -5 6 6 6 11 1 17 -2 13 -5z m551 -31 c-10 -2 -28 -2 -40 0 -13 2
-5 4 17 4 22 1 32 -1 23 -4z m-389 -82 c64 -32 211 -97 326 -144 201 -80 218
-85 364 -107 107 -15 192 -21 280 -20 73 1 145 -3 171 -10 30 -8 85 -9 165 -5
90 5 131 3 165 -8 l45 -14 -60 -9 c-33 -5 -150 -8 -260 -8 -174 1 -233 6 -454
38 -292 43 -342 53 -477 100 -185 65 -477 206 -460 223 3 3 43 -15 89 -41 87
-47 236 -111 243 -103 2 2 -56 34 -130 70 -133 67 -177 97 -141 97 10 0 70
-27 134 -59z m59 37 c-3 -7 -11 -13 -18 -13 -7 0 -15 6 -17 13 -3 7 4 12 17
12 13 0 20 -5 18 -12z m986 -44 c14 -37 6 -74 -21 -91 -14 -10 -28 -13 -30 -8
-12 34 -22 39 -41 22 -48 -43 -57 -5 -9 40 55 52 90 65 101 37z m-124 -19 c-7
-8 -20 -15 -28 -15 -13 0 -12 3 4 15 25 19 40 19 24 0z m240 -14 c0 -11 -58
-61 -70 -61 -23 0 -21 25 4 47 27 23 66 31 66 14z m818 -5 c51 -7 95 -15 98
-19 3 -3 -4 -11 -16 -17 -16 -8 -72 -10 -201 -4 -98 4 -179 9 -179 12 0 3 7
14 17 24 13 15 31 18 102 18 47 -1 128 -7 179 -14z m422 -6 c0 -5 -7 -10 -16
-10 -8 0 -12 5 -9 10 3 6 10 10 16 10 5 0 9 -4 9 -10z m-216 -15 c-6 -16 -24
-21 -24 -7 0 11 11 22 21 22 5 0 6 -7 3 -15z m496 6 c0 -19 -193 -30 -205 -12
-3 6 16 12 42 14 98 7 163 7 163 -2z m-2420 -26 c0 -17 -2 -18 -24 -9 -23 9
-20 24 4 24 11 0 20 -7 20 -15z m990 -4 c0 -6 -10 -17 -22 -26 -28 -19 -40 1
-12 22 21 15 34 17 34 4z m-544 -28 c-10 -10 -19 5 -10 18 6 11 8 11 12 0 2
-7 1 -15 -2 -18z m434 -8 c-14 -17 -50 -20 -50 -5 0 13 54 40 58 29 2 -5 -2
-16 -8 -24z m-645 -21 c66 -14 136 -33 155 -42 l35 -16 -29 -4 c-39 -5 -198
33 -261 63 -66 31 -45 31 100 -1z m770 -4 c-10 -11 -22 -17 -28 -13 -6 4 -1
14 13 25 29 23 39 15 15 -12z m75 15 c-7 -8 -20 -15 -29 -15 -13 1 -13 3 3 15
26 19 42 19 26 0z m55 -20 c-31 -26 -55 -32 -55 -16 0 15 42 41 65 41 18 -1
16 -4 -10 -25z m200 -145 c-3 -5 -13 -10 -21 -10 -8 0 -12 5 -9 10 3 6 13 10
21 10 8 0 12 -4 9 -10z"/>
<path d="M1866 3829 c-14 -11 -26 -30 -25 -42 l0 -22 11 22 c6 12 24 26 39 32
16 5 29 15 29 20 0 17 -25 13 -54 -10z"/>
<path d="M1356 3755 c-54 -19 -73 -40 -26 -30 19 5 67 9 106 10 70 1 94 8 94
26 0 14 -130 10 -174 -6z"/>
<path d="M1270 3699 c0 -5 5 -7 10 -4 6 3 10 8 10 11 0 2 -4 4 -10 4 -5 0 -10
-5 -10 -11z"/>
<path d="M1165 3670 c-12 -19 16 -40 51 -40 23 0 34 5 34 15 0 28 -71 48 -85
25z"/>
<path d="M1085 3660 c-3 -5 -2 -10 4 -10 5 0 13 5 16 10 3 6 2 10 -4 10 -5 0
-13 -4 -16 -10z"/>
<path d="M1085 3610 c-10 -11 -16 -21 -14 -23 59 -35 122 -58 131 -49 8 8 0
22 -29 52 -46 45 -62 49 -88 20z"/>
<path d="M1887 3392 c-36 -91 -30 -182 13 -182 25 0 55 60 66 129 9 58 -10 47
-25 -13 -13 -55 -38 -77 -27 -25 18 87 19 129 3 129 -8 0 -22 -17 -30 -38z"/>
<path d="M1366 3220 c5 -14 9 -38 9 -55 2 -24 11 -36 49 -59 48 -30 71 -29 43
2 -12 13 -14 21 -6 29 8 8 0 18 -29 37 -22 14 -48 35 -57 48 l-17 23 8 -25z"/>
<path d="M1464 3227 c-7 -20 3 -37 22 -37 18 0 18 24 -1 40 -12 10 -16 9 -21
-3z"/>
<path d="M1324 3081 c4 -6 14 -11 22 -11 8 0 34 -9 57 -19 24 -11 56 -22 72
-26 22 -4 14 2 -26 24 -60 32 -137 52 -125 32z"/>
<path d="M1280 3056 c0 -30 47 -66 118 -90 39 -14 72 -21 72 -16 0 11 -93 82
-137 104 -40 20 -53 20 -53 2z"/>
<path d="M1840 3065 c0 -5 5 -17 10 -25 5 -8 10 -10 10 -5 0 6 -5 17 -10 25
-5 8 -10 11 -10 5z"/>
<path d="M1210 3011 c0 -19 90 -91 115 -91 14 0 25 4 25 9 0 12 -53 53 -97 75
-37 18 -43 19 -43 7z"/>
<path d="M1211 2935 c24 -41 22 -42 -25 -14 -49 29 -45 14 15 -49 54 -58 78
-63 93 -20 11 32 -12 74 -49 88 -12 5 -26 14 -30 19 -3 6 -10 11 -15 11 -5 0
0 -16 11 -35z"/>
<path d="M1370 2874 c0 -15 27 -50 34 -43 4 3 -2 17 -13 30 -11 13 -20 19 -21
13z"/>
<path d="M1325 2860 c-3 -5 -1 -10 4 -10 6 0 11 5 11 10 0 6 -2 10 -4 10 -3 0
-8 -4 -11 -10z"/>
<path d="M1701 2838 c-1 -16 4 -28 9 -28 12 0 12 8 0 35 -8 18 -9 17 -9 -7z"/>
<path d="M1948 2847 c-12 -29 -10 -63 3 -50 6 6 9 23 7 39 -2 24 -4 26 -10 11z"/>
<path d="M1794 2815 c-12 -68 0 -142 32 -186 16 -22 33 -41 39 -42 5 -1 16 16
23 37 11 35 11 41 -3 49 -13 7 -15 18 -9 53 6 41 4 46 -15 51 -13 3 -24 17
-29 36 -11 44 -30 45 -38 2z"/>
<path d="M1985 2838 c-2 -7 -6 -31 -9 -53 -8 -50 9 -27 19 28 7 34 -1 53 -10
25z"/>
<path d="M1451 2810 c-2 -50 59 -208 91 -237 19 -17 20 -17 34 2 12 16 18 18
34 7 18 -11 20 -10 20 12 0 13 6 26 12 28 10 4 10 10 1 29 -15 32 -99 126
-125 140 -24 13 -24 9 11 -79 30 -76 8 -55 -39 36 -21 42 -39 70 -39 62z"/>
<path d="M1333 2744 c-3 -8 -1 -20 6 -27 8 -8 11 -4 11 16 0 30 -7 35 -17 11z"/>
<path d="M1420 2707 c0 -20 26 -52 33 -40 10 15 -4 53 -19 53 -8 0 -14 -6 -14
-13z"/>
<path d="M2045 2511 c-3 -5 -1 -12 5 -16 5 -3 10 1 10 9 0 18 -6 21 -15 7z"/>
<path d="M1605 2330 c3 -5 11 -10 16 -10 6 0 7 5 4 10 -3 6 -11 10 -16 10 -6
0 -7 -4 -4 -10z"/>
<path d="M2100 2265 c0 -9 8 -32 17 -53 l17 -37 4 32 c3 33 -12 73 -28 73 -6
0 -10 -7 -10 -15z"/>
<path d="M2180 2035 c0 -15 4 -24 10 -20 6 3 10 12 10 20 0 8 -4 17 -10 20 -6
4 -10 -5 -10 -20z"/>
<path d="M2310 1881 c0 -21 13 -41 26 -41 17 0 17 10 0 33 -14 19 -26 22 -26
8z"/>
<path d="M2420 1719 c0 -22 32 -77 60 -104 26 -25 30 -26 30 -9 -1 43 -90 155
-90 113z"/>
</g>
</svg>
